# xmcd
#
# Track frame offsets:
#	150
#	18831
#	31901
#	41405
#	88486
#	117445
#	147670
#	180575
#	201901
#	224035
#	243243
#	264855
#	286318
#	297495
#	317198
#	329482
#	340742
#
# Disc length: 4738 seconds
#
# Revision: 0
# Processed by: cddbd v1.5.2PL0 Copyright (c) Steve Scherf et al.
# Submitted via: dBpowerAMP V4.0
#
DISCID=0e128011
DTITLE=The Times - Pure - Et Dieu Crea La Femme
DYEAR=1991
DGENRE=Indie
TTITLE0=From Chelsea Green To Brighton Beach
TTITLE1=A Girl Called Mersey
TTITLE2=From L.A. To Edgbaston
TTITLE3=Lundi Bleu
TTITLE4=A Beautiful Village Called England
TTITLE5=Ours Is A Wonderlove World
TTITLE6=Another Star In Heaven
TTITLE7=Septieme Ciel
TTITLE8=Aurore Boreale
TTITLE9=Confiance
TTITLE10=Chagrin D'Amour
TTITLE11=Volupte
TTITLE12=Baisers Voles
TTITLE13=Pour Kylie
TTITLE14=Sucette
TTITLE15=1990 Annee Erotique
TTITLE16=Ecstase
EXTD=
EXTT0=
EXTT1=
EXTT2=
EXTT3=
EXTT4=
EXTT5=
EXTT6=
EXTT7=
EXTT8=
EXTT9=
EXTT10=
EXTT11=
EXTT12=
EXTT13=
EXTT14=
EXTT15=
EXTT16=
PLAYORDER=
